<svg xmlns="http://www.w3.org/2000/svg">
  <symbol id="arrow-right" viewBox="0 0 7 12" fill="none">
    <path
      d="M0.46967 5.46967C0.176777 5.76256 0.176777 6.23744 0.46967 6.53033L5.24264 11.3033C5.53553 11.5962 6.01041 11.5962 6.3033 11.3033C6.59619 11.0104 6.59619 10.5355 6.3033 10.2426L2.06066 6L6.3033 1.75736C6.59619 1.46447 6.59619 0.989593 6.3033 0.6967C6.01041 0.403806 5.53553 0.403806 5.24264 0.696699L0.46967 5.46967ZM1.5 5.25L1 5.25L1 6.75L1.5 6.75L1.5 5.25Z"
      fill="white" />
  </symbol>
  <symbol id="minus" viewBox="0 0 12 4" fill="none">
    <path
      d="M0 1.8999C0 1.07148 0.671573 0.399902 1.5 0.399902H10.5C11.3284 0.399902 12 1.07148 12 1.8999C12 2.72833 11.3284 3.3999 10.5 3.3999H1.5C0.671573 3.3999 0 2.72833 0 1.8999Z"
      fill="white" />
  </symbol>
  <symbol id="plus" viewBox="0 0 12 12" fill="none">
    <g clip-path="url(#clip0_1_1212)">
      <path
        d="M10.2771 4.69671H7.34632V1.76596C7.34632 1.04593 6.74157 0.456543 6.02127 0.456543C5.30097 0.456543 4.69622 1.04593 4.69622 1.76596V4.69671H1.76547C1.04544 4.69671 0.456055 5.30146 0.456055 6.02176C0.456055 6.74206 1.04544 7.34681 1.76547 7.34681H4.69622V10.2776C4.69622 10.9976 5.30097 11.587 6.02127 11.587C6.74157 11.587 7.34632 10.9976 7.34632 10.2776V7.34681H10.2771C10.9971 7.34681 11.5865 6.74206 11.5865 6.02176C11.5865 5.30146 10.9971 4.69671 10.2771 4.69671Z"
        fill="white" />
    </g>
    <defs>
      <clipPath id="clip0_1_1212">
        <rect width="11.1304" height="11.1304" fill="white" transform="translate(0.456055 0.456543)" />
      </clipPath>
    </defs>
  </symbol>
  <symbol id="x" viewBox="0 0 17 16" fill="none">
    <g clip-path="url(#clip0_1_1202)">
      <path
        d="M12.6035 10.1437L10.5311 8.07133L12.6035 5.99898C13.1126 5.48984 13.1018 4.64546 12.5924 4.13613C12.0831 3.6268 11.2387 3.61593 10.7296 4.12508L8.65723 6.19743L6.58487 4.12508C6.07573 3.61593 5.23135 3.6268 4.72202 4.13613C4.2127 4.64546 4.20183 5.48984 4.71097 5.99898L6.78332 8.07133L4.71097 10.1437C4.20183 10.6528 4.2127 11.4972 4.72202 12.0065C5.23135 12.5159 6.07573 12.5267 6.58487 12.0176L8.65723 9.94524L10.7296 12.0176C11.2387 12.5267 12.0831 12.5159 12.5924 12.0065C13.1018 11.4972 13.1126 10.6528 12.6035 10.1437Z"
        fill="white" />
    </g>
    <defs>
      <clipPath id="clip0_1_1202">
        <rect width="11.1304" height="11.1304" fill="white" transform="translate(8.65723 0.200928) rotate(45)" />
      </clipPath>
    </defs>
  </symbol>
</svg>