<svg xmlns="http://www.w3.org/2000/svg">

  <symbol viewBox="0 0 24 24" id="arrow-icon">
    <path d="M19 8.5L12 15.5L5 8.5" fill="none" stroke="white" stroke-width="2" stroke-linecap="round"
      stroke-linejoin="round" />
  </symbol>

  <symbol id="arrow-right" viewBox="0 0 7 12" width="12px" height="12px" fill="none">
    <path
      d="M0.46967 5.46967C0.176777 5.76256 0.176777 6.23744 0.46967 6.53033L5.24264 11.3033C5.53553 11.5962 6.01041 11.5962 6.3033 11.3033C6.59619 11.0104 6.59619 10.5355 6.3033 10.2426L2.06066 6L6.3033 1.75736C6.59619 1.46447 6.59619 0.989593 6.3033 0.6967C6.01041 0.403806 5.53553 0.403806 5.24264 0.696699L0.46967 5.46967ZM1.5 5.25L1 5.25L1 6.75L1.5 6.75L1.5 5.25Z"
      fill="white" />
  </symbol>
  <symbol id="minus" viewBox="0 0 12 4" fill="none">
    <path
      d="M0 1.8999C0 1.07148 0.671573 0.399902 1.5 0.399902H10.5C11.3284 0.399902 12 1.07148 12 1.8999C12 2.72833 11.3284 3.3999 10.5 3.3999H1.5C0.671573 3.3999 0 2.72833 0 1.8999Z"
      fill="white" />
  </symbol>
  <symbol id="plus" viewBox="0 0 12 12" fill="none">
    <g clip-path="url(#clip0_1_1212)">
      <path
        d="M10.2771 4.69671H7.34632V1.76596C7.34632 1.04593 6.74157 0.456543 6.02127 0.456543C5.30097 0.456543 4.69622 1.04593 4.69622 1.76596V4.69671H1.76547C1.04544 4.69671 0.456055 5.30146 0.456055 6.02176C0.456055 6.74206 1.04544 7.34681 1.76547 7.34681H4.69622V10.2776C4.69622 10.9976 5.30097 11.587 6.02127 11.587C6.74157 11.587 7.34632 10.9976 7.34632 10.2776V7.34681H10.2771C10.9971 7.34681 11.5865 6.74206 11.5865 6.02176C11.5865 5.30146 10.9971 4.69671 10.2771 4.69671Z"
        fill="white" />
    </g>
    <defs>
      <clipPath id="clip0_1_1212">
        <rect width="11.1304" height="11.1304" fill="white" transform="translate(0.456055 0.456543)" />
      </clipPath>
    </defs>
  </symbol>
  <symbol id="x" viewBox="0 0 17 16" fill="none">
    <g clip-path="url(#clip0_1_1202)">
      <path
        d="M12.6035 10.1437L10.5311 8.07133L12.6035 5.99898C13.1126 5.48984 13.1018 4.64546 12.5924 4.13613C12.0831 3.6268 11.2387 3.61593 10.7296 4.12508L8.65723 6.19743L6.58487 4.12508C6.07573 3.61593 5.23135 3.6268 4.72202 4.13613C4.2127 4.64546 4.20183 5.48984 4.71097 5.99898L6.78332 8.07133L4.71097 10.1437C4.20183 10.6528 4.2127 11.4972 4.72202 12.0065C5.23135 12.5159 6.07573 12.5267 6.58487 12.0176L8.65723 9.94524L10.7296 12.0176C11.2387 12.5267 12.0831 12.5159 12.5924 12.0065C13.1018 11.4972 13.1126 10.6528 12.6035 10.1437Z"
        fill="white" />
    </g>
    <defs>
      <clipPath id="clip0_1_1202">
        <rect width="11.1304" height="11.1304" fill="white" transform="translate(8.65723 0.200928) rotate(45)" />
      </clipPath>
    </defs>
  </symbol>
  <symbol width="19" height="19" id="bag" viewBox="0 0 19 19" fill="none">
    <g clip-path="url(#clip0_1_1810)">
      <path
        d="M18.1245 18.5268L16.7049 5.30012C16.6812 5.08717 16.4919 4.92154 16.279 4.92154H13.6526V4.11706C13.6526 1.84558 11.807 0 9.5355 0C7.26402 0 5.41844 1.84558 5.41844 4.11706V4.92154H2.72106C2.50811 4.92154 2.31882 5.08717 2.29515 5.30012L0.875479 18.5268C0.851817 18.6451 0.89914 18.7634 0.970124 18.858C1.04111 18.9527 1.15941 19 1.27772 19H17.7223C17.8406 19 17.9589 18.9527 18.0299 18.858C18.1009 18.7634 18.1482 18.6451 18.1245 18.5268ZM13.2267 7.31133C13.4396 7.31133 13.6052 7.47696 13.6052 7.68991C13.6052 7.90286 13.4396 8.06849 13.2267 8.06849C13.0137 8.06849 12.8481 7.90286 12.8481 7.68991C12.8481 7.47696 13.0137 7.31133 13.2267 7.31133ZM6.27025 4.11706C6.27025 2.3188 7.73725 0.851806 9.5355 0.851806C11.3338 0.851806 12.8008 2.3188 12.8008 4.11706V4.92154H6.27025V4.11706ZM5.84435 7.31133C6.0573 7.31133 6.22293 7.47696 6.22293 7.68991C6.22293 7.90286 6.0573 8.06849 5.84435 8.06849C5.63139 8.06849 5.46576 7.90286 5.46576 7.68991C5.46576 7.47696 5.63139 7.31133 5.84435 7.31133ZM1.77461 18.1245L3.09964 5.74969H5.41844V6.53051C4.94522 6.69614 4.61396 7.1457 4.61396 7.66625C4.61396 8.32877 5.15817 8.87298 5.82068 8.87298C6.4832 8.87298 7.02741 8.32877 7.02741 7.66625C7.02741 7.1457 6.69615 6.69614 6.22293 6.53051V5.74969H12.7534V6.53051C12.2802 6.69614 11.949 7.1457 11.949 7.66625C11.949 8.32877 12.4932 8.87298 13.1557 8.87298C13.8182 8.87298 14.3624 8.32877 14.3624 7.66625C14.3624 7.1457 14.0311 6.69614 13.5579 6.53051V5.74969H15.9714L17.2964 18.1245H1.77461Z"
        fill="white" />
    </g>
    <defs>
      <clipPath id="clip0_1_1810">
        <rect width="19" height="19" fill="white" />
      </clipPath>
    </defs>
  </symbol>
  <symbol id="cart" width="20" height="21" viewBox="0 0 20 21" fill="none">
    <path fill-rule="evenodd" clip-rule="evenodd"
      d="M5.42233 17.8203C5.84433 17.8203 6.18733 18.1633 6.18733 18.5853C6.18733 19.0073 5.84433 19.3493 5.42233 19.3493C5.00033 19.3493 4.65833 19.0073 4.65833 18.5853C4.65833 18.1633 5.00033 17.8203 5.42233 17.8203Z"
      stroke="white" stroke-width="1.5" stroke-linecap="round" stroke-linejoin="round" />
    <path fill-rule="evenodd" clip-rule="evenodd"
      d="M16.6747 17.8203C17.0967 17.8203 17.4397 18.1633 17.4397 18.5853C17.4397 19.0073 17.0967 19.3493 16.6747 19.3493C16.2527 19.3493 15.9097 19.0073 15.9097 18.5853C15.9097 18.1633 16.2527 17.8203 16.6747 17.8203Z"
      stroke="white" stroke-width="1.5" stroke-linecap="round" stroke-linejoin="round" />
    <path
      d="M0.749878 1.25L2.82988 1.61L3.79288 13.083C3.87088 14.018 4.65188 14.736 5.58988 14.736H16.5019C17.3979 14.736 18.1579 14.078 18.2869 13.19L19.2359 6.632C19.3529 5.823 18.7259 5.099 17.9089 5.099H3.16388"
      stroke="white" stroke-width="1.5" stroke-linecap="round" stroke-linejoin="round" />
    <path d="M12.1254 8.79492H14.8984" stroke="white" stroke-width="1.5" stroke-linecap="round"
      stroke-linejoin="round" />
  </symbol>
</svg>